Coordinates
version=1
nRows=14
nColumns=46
inDegrees=yes

Units are S.I. units (second, meters, Newtons, ...)
Angles are in degrees.

endheader
time	pelvis_tilt	pelvis_list	pelvis_rotation	pelvis_tx	pelvis_ty	pelvis_tz	bb_angle	bb_tx	bb_ty	bb_tz	hip_flexion_r	hip_adduction_r	hip_rotation_r	knee_angle_r	knee_angle_r_beta	ankle_angle_r	subtalar_angle_r	mtp_angle_r	crank_angle_r	hip_flexion_l	hip_adduction_l	hip_rotation_l	knee_angle_l	knee_angle_l_beta	ankle_angle_l	subtalar_angle_l	mtp_angle_l	crank_angle_l	lumbar_extension	lumbar_bending	lumbar_rotation	arm_flex_r	arm_add_r	arm_rot_r	elbow_flex_r	pro_sup_r	wrist_flex_r	wrist_dev_r	arm_flex_l	arm_add_l	arm_rot_l	elbow_flex_l	pro_sup_l	wrist_flex_l	wrist_dev_l
      0.00500000	    -31.01646200	     -1.05056788	     -7.76182524	      0.07095552	      0.98133899	     -0.20549508	      0.00000000	      0.50000000	      0.00000000	      0.25000000	    106.74065187	     -9.66176585	     -7.46295847	     97.11535761	      1.69498274	     14.32998299	      6.40592311	      0.00000000	      0.00000000	     66.79071849	    -12.62468880	     -0.57535476	     63.71499059	      1.11203637	    -18.26326869	    -13.11002980	      0.00000000	      0.00000000	    -30.28457411	      1.92270475	      5.92804845	     88.01154084	     -5.02771643	     46.98653563	     23.42615359	     41.78367785	      0.00000000	      0.00000000	     84.58610163	    -12.89300814	     48.04521296	     29.12840652	     43.21014798	      0.00000000	      0.00000000
      0.01000000	    -30.99531293	     -1.07427370	     -7.74773008	      0.07104590	      0.98135867	     -0.20545783	      0.00000000	      0.50000000	      0.00000000	      0.25000000	    106.69676893	     -9.68277248	     -7.50097004	     97.09776290	      1.69467566	     14.33030656	      6.35896618	      0.00000000	      0.00000000	     66.78850820	    -12.64892826	     -0.56667788	     63.77243265	      1.11303892	    -18.20117250	    -13.04778646	      0.00000000	      0.00000000	    -30.30173932	      1.94785386	      5.94343787	     88.06615509	     -4.98952286	     47.26663567	     23.14936647	     41.70046011	      0.00000000	      0.00000000	     84.59910423	    -12.95299465	     48.32371971	     29.16557335	     43.24020786	      0.00000000	      0.00000000
      0.01500000	    -31.07910059	     -1.12324516	     -7.77199410	      0.07103235	      0.98120008	     -0.20530436	      0.00000000	      0.50000000	      0.00000000	      0.25000000	    106.74867848	     -9.65254315	     -7.58502441	     97.05212918	      1.69387920	     14.27516800	      6.30079357	      0.00000000	      0.00000000	     66.91633397	    -12.74394264	     -0.51741524	     63.86275491	      1.11461534	    -17.98190614	    -12.71563591	      0.00000000	      0.00000000	    -30.19213770	      2.01139752	      5.99412109	     88.03339304	     -4.67418958	     46.56782116	     22.90618051	     40.84047361	      0.00000000	      0.00000000	     84.43865332	    -12.72466427	     47.48056634	     29.02874588	     42.64101175	      0.00000000	      0.00000000
      0.02000000	    -31.02234380	     -1.07813175	     -7.67398803	      0.07112353	      0.98137279	     -0.20547338	      0.00000000	      0.50000000	      0.00000000	      0.25000000	    106.69699951	     -9.76169907	     -7.51191893	     97.03410788	      1.69356467	     14.26184451	      6.31667214	      0.00000000	      0.00000000	     66.85140407	    -12.60601449	     -0.54359699	     63.85419082	      1.11446587	    -18.08770691	    -12.90698011	      0.00000000	      0.00000000	    -30.31096039	      1.97744274	      5.88904052	     88.10700596	     -5.52503302	     49.17416098	     23.90468714	     40.44720067	      0.00000000	      0.00000000	     84.82035690	    -13.55248757	     50.58280498	     29.68704248	     42.75630998	      0.00000000	      0.00000000
      0.02500000	    -31.04159544	     -1.16619480	     -7.72078356	      0.07113335	      0.98098980	     -0.20526947	      0.00000000	      0.50000000	      0.00000000	      0.25000000	    106.72730521	     -9.71136909	     -7.56948788	     97.06214317	      1.69405398	     14.28586100	      6.38596912	      0.00000000	      0.00000000	     66.84271148	    -12.71606125	     -0.47690472	     63.82082671	      1.11388356	    -18.17350722	    -12.70922834	      0.00000000	      0.00000000	    -30.28015826	      2.03926600	      5.96856592	     88.08168282	     -5.27213269	     48.71246156	     23.48518581	     40.58509688	      0.00000000	      0.00000000	     84.60478307	    -13.26273297	     49.34484782	     29.58052378	     42.72778020	      0.00000000	      0.00000000
      0.03000000	    -31.05821395	     -1.20519835	     -7.71738404	      0.07115429	      0.98089723	     -0.20522638	      0.00000000	      0.50000000	      0.00000000	      0.25000000	    106.73727035	     -9.72539771	     -7.61657888	     97.05404389	      1.69391262	     14.19230659	      6.36525559	      0.00000000	      0.00000000	     66.87687969	    -12.74256345	     -0.43861207	     63.86503872	      1.11465520	    -18.06297200	    -12.54633634	      0.00000000	      0.00000000	    -30.24130025	      2.08554394	      6.01791808	     88.08042615	     -5.02224978	     48.26366574	     22.97732625	     40.54145133	      0.00000000	      0.00000000	     84.53476136	    -13.00434778	     48.55097427	     29.41171018	     42.61014977	      0.00000000	      0.00000000
      0.03500000	    -31.05075168	     -1.16256741	     -7.72287651	      0.07119043	      0.98092017	     -0.20514408	      0.00000000	      0.50000000	      0.00000000	      0.25000000	    106.73312554	     -9.70722215	     -7.59217020	     97.04302007	      1.69372022	     14.21979389	      6.36801949	      0.00000000	      0.00000000	     66.85023671	    -12.73405458	     -0.49326691	     63.85032921	      1.11439847	    -18.15500583	    -12.62837142	      0.00000000	      0.00000000	    -30.25312761	      2.05013851	      5.92796356	     88.06801866	     -4.95038611	     48.34296341	     23.02896363	     40.74073037	      0.00000000	      0.00000000	     84.51155605	    -13.12641472	     48.42984078	     29.40572656	     42.72104595	      0.00000000	      0.00000000
      0.04000000	    -31.05743553	     -1.18373536	     -7.70888552	      0.07116137	      0.98084626	     -0.20510047	      0.00000000	      0.50000000	      0.00000000	      0.25000000	    106.73359415	     -9.71749502	     -7.61996846	     97.04041802	      1.69367480	     14.20128714	      6.35227940	      0.00000000	      0.00000000	     66.87982031	    -12.73585365	     -0.44144239	     63.89103916	      1.11510900	    -18.09810547	    -12.54199515	      0.00000000	      0.00000000	    -30.24289392	      2.06687091	      5.92831048	     88.08770836	     -5.00638380	     48.61730131	     22.99514298	     40.93162587	      0.00000000	      0.00000000	     84.53146668	    -13.16782091	     48.55131186	     29.42608827	     42.86997889	      0.00000000	      0.00000000
      0.04500000	    -30.99108754	     -1.07482257	     -7.64766466	      0.07125061	      0.98099300	     -0.20521851	      0.00000000	      0.50000000	      0.00000000	      0.25000000	    106.70518678	     -9.77725450	     -7.49956488	     97.06119225	      1.69403738	     14.20957380	      6.33383017	      0.00000000	      0.00000000	     66.76204007	    -12.58931698	     -0.54016640	     63.82735154	      1.11399744	    -18.25395812	    -12.75393966	      0.00000000	      0.00000000	    -30.32204860	      1.98124925	      5.84508221	     87.82244627	     -4.28557059	     44.78518374	     23.19284176	     40.17388858	      0.00000000	      0.00000000	     84.38651363	    -12.26597084	     45.54406556	     28.69132284	     42.03918535	      0.00000000	      0.00000000
      0.05000000	    -31.06300402	     -1.17278292	     -7.70729452	      0.07119964	      0.98080543	     -0.20505294	      0.00000000	      0.50000000	      0.00000000	      0.25000000	    106.72713946	     -9.72367475	     -7.63692181	     97.03000311	      1.69349303	     14.22504466	      6.32700111	      0.00000000	      0.00000000	     66.89461325	    -12.74042556	     -0.44924309	     63.92535263	      1.11570788	    -18.06422037	    -12.44571752	      0.00000000	      0.00000000	    -30.24078270	      2.05621844	      5.93209822	     88.09124923	     -5.07010255	     48.96182681	     23.06235627	     40.46058143	      0.00000000	      0.00000000	     84.59052253	    -13.44373942	     49.31310592	     29.71265504	     42.75388454	      0.00000000	      0.00000000
      0.05500000	    -31.06962904	     -1.14159719	     -7.60519772	      0.07128716	      0.98086798	     -0.20529488	      0.00000000	      0.50000000	      0.00000000	      0.25000000	    106.73365126	     -9.87111725	     -7.58127423	     97.05327680	      1.69389923	     14.33924650	      6.67560439	      0.00000000	      0.00000000	     66.88290279	    -12.57804136	     -0.44552202	     63.85904381	      1.11455057	    -18.43697732	    -13.02801869	      0.00000000	      0.00000000	    -30.29158601	      2.06716365	      5.80290857	     87.86386475	     -5.22551048	     47.47416827	     24.19084996	     40.67416007	      0.00000000	      0.00000000	     84.22688248	    -13.47637133	     47.52751050	     30.69252280	     42.76963216	      0.00000000	      0.00000000
      0.06000000	    -31.04417219	     -1.13321852	     -7.66134393	      0.07129430	      0.98085374	     -0.20502697	      0.00000000	      0.50000000	      0.00000000	      0.25000000	    106.71659455	     -9.77572533	     -7.60013904	     97.04123596	      1.69368908	     14.24329262	      6.36680547	      0.00000000	      0.00000000	     66.85174149	    -12.67166837	     -0.47491780	     63.89630890	      1.11520097	    -18.11635524	    -12.53515103	      0.00000000	      0.00000000	    -30.26331364	      2.01519423	      5.82799742	     88.10724809	     -5.39169256	     50.04430110	     23.51311793	     40.50032829	      0.00000000	      0.00000000	     84.64294120	    -13.69003493	     49.71653327	     29.91807319	     42.89783594	      0.00000000	      0.00000000
      0.06500000	    -31.02903981	     -1.14586377	     -7.67991670	      0.07134445	      0.98089670	     -0.20495125	      0.00000000	      0.50000000	      0.00000000	      0.25000000	    106.68288885	     -9.75908694	     -7.62286261	     97.03458873	      1.69357306	     14.25644287	      6.38506225	      0.00000000	      0.00000000	     66.82924387	    -12.70445274	     -0.47960648	     63.90315623	      1.11532048	    -18.04921684	    -12.52430860	      0.00000000	      0.00000000	    -30.27751987	      2.01931282	      5.88028642	     88.06156863	     -5.04955529	     48.84969498	     23.21242715	     39.92471976	      0.00000000	      0.00000000	     84.46316848	    -13.30257342	     48.24483743	     29.76388976	     42.49035623	      0.00000000	      0.00000000
      0.07000000	    -31.01756317	     -1.12415990	     -7.66817997	      0.07138926	      0.98088460	     -0.20491565	      0.00000000	      0.50000000	      0.00000000	      0.25000000	    106.68424726	     -9.77871902	     -7.60194788	     97.04810327	      1.69380893	     14.27099742	      6.39941607	      0.00000000	      0.00000000	     66.81260919	    -12.68673557	     -0.50175329	     63.89636699	      1.11520198	    -18.10846692	    -12.52878851	      0.00000000	      0.00000000	    -30.29066979	      1.99039149	      5.83639813	     88.11642106	     -5.46260382	     50.36960906	     23.66908309	     39.76981538	      0.00000000	      0.00000000	     84.62686289	    -13.70162314	     49.68923151	     30.00726351	     42.64887739	      0.00000000	      0.00000000
